<?xml version="1.0" encoding="utf-8"?>
<!-- Generator: Adobe Illustrator 18.1.1, SVG Export Plug-In . SVG Version: 6.00 Build 0)  -->
<svg version="1.1" id="Camada_1" xmlns="http://www.w3.org/2000/svg" xmlns:xlink="http://www.w3.org/1999/xlink" x="0px" y="0px"
	 viewBox="0 0 544 245" enable-background="new 0 0 544 245" xml:space="preserve">
<g>
	<path fill="#FFFFFF" d="M273,187.1c0,3.3-0.4,6.3-1.3,8.2c-2.3,5.1-6.1,5.6-8,5.6c-1.8,0-5.7-0.5-8.1-5.6c-0.9-1.9-1.3-4.9-1.3-8.2
		l0-28.2h-3.9l0,28.2c0,3.8,0.5,7.1,1.5,9.4c2.7,6.8,8.2,8.4,11.8,8.4c3.7,0,9.2-1.6,11.8-8.4c1-2.4,1.4-5.6,1.4-9.4v-28.2H273
		V187.1z"/>
	<polygon fill="#FFFFFF" points="320.9,196.4 320.8,196.4 299,158.9 293.6,158.9 293.7,204.1 297.6,204.1 297.6,164.3 297.7,164.3 
		320.9,204 324.8,204 324.8,158.8 320.9,158.8 	"/>
	<polygon fill="#FFFFFF" points="341.6,204 345.4,204 345.4,158.8 341.5,158.8 	"/>
	<path fill="#FFFFFF" d="M373.7,178.5c-5.2-1.7-9.3-3-9.3-8.4c-0.1-4,2.6-7.9,7-7.9c3.7,0,7,3.5,7,8.1h3.9c0-6.6-4.5-12.2-10.9-12.2
		c-6.1,0-11,5.1-11,12.1c0,9.1,6.7,10.8,10.2,11.9c2.7,1,8.7,2.7,8.7,9.6c0,5.3-3.7,9-7.8,9c-4.8,0.1-7.9-3.6-8.2-9.3h-3.8
		c0.2,9.9,6.9,13.5,12,13.5c6.9-0.1,11.7-6.3,11.7-13.4C383.2,190.2,383.3,181.5,373.7,178.5z"/>
	<rect x="397.4" y="158.8" fill="#FFFFFF" width="3.9" height="45.2"/>
	<polygon fill="#FFFFFF" points="445.2,196.3 445.1,196.3 423.2,158.8 418,158.8 418,204 421.9,204 421.8,164.3 422,164.3 
		445.2,204 449.1,204 449.1,158.7 445.2,158.8 	"/>
	<path fill="#FFFFFF" d="M484.8,158c-10.4,0-20.6,9.4-20.6,23.7c0,12.7,9.5,23.1,20.6,23.1c11,0,20.7-10.1,20.7-23.4
		C505.5,168,495.7,158,484.8,158z M484.8,200.6c-9.1,0-16.7-8.7-16.7-19c0-11.3,7.9-19.7,16.7-19.6c9.3-0.1,16.8,8.8,16.8,19.4
		C501.6,192.1,493.8,200.6,484.8,200.6z"/>
	<path fill="#FFFFFF" d="M531.9,178.4c-5.2-1.7-9.3-3-9.3-8.5c0-4,2.6-7.9,7.1-7.9c3.7,0,6.9,3.6,6.9,8.2h4
		c0-6.6-4.5-12.3-10.9-12.3c-6.2,0-11,5.2-11,12.2c0,9,6.6,10.7,10.1,11.8c2.7,1,8.8,2.8,8.8,9.7c0,5.3-3.8,9-7.9,9
		c-4.8,0-7.9-3.6-8.1-9.4h-3.9c0.2,10,7,13.5,12,13.5c7,0,11.8-6.3,11.8-13.3C541.5,190.1,541.5,181.3,531.9,178.4z"/>
	<polygon fill="#FFFFFF" points="274.4,117.7 254.2,117.7 254.2,97.7 250.3,97.7 250.4,143 254.2,143 254.2,121.8 274.4,121.7 
		274.5,143 278.4,143 278.4,97.6 274.4,97.6 	"/>
	<path fill="#FFFFFF" d="M311.9,135.2c1-2.3,1.5-5.6,1.5-9.4l-0.1-28.2h-3.8v28.2c0,3.3-0.4,6.2-1.3,8.2c-2.4,5.1-6.2,5.5-8.1,5.5
		c-1.8,0-5.6-0.5-8.1-5.5c-0.9-1.9-1.2-4.9-1.2-8.2l-0.1-28.2h-3.9v28.2c0,3.8,0.6,7.1,1.5,9.4c2.8,6.9,8.2,8.5,11.8,8.5
		S309.3,142.1,311.9,135.2z"/>
	<polygon fill="#FFFFFF" points="362.3,97.6 356.4,97.6 342.1,136.2 327.9,97.6 321.9,97.6 321.9,142.9 325.8,142.9 325.8,102.6 
		325.9,102.6 340.4,142.9 343.7,142.9 358.4,102.6 358.5,142.9 362.4,142.9 	"/>
	<path fill="#FFFFFF" d="M384.2,97.6l-16.7,45.2h4.1l5.7-15.3h18.1l5.7,15.3h4.2l-16.8-45.2H384.2z M378.7,123.5l7.6-20.7l7.5,20.7
		H378.7z"/>
	<polygon fill="#FFFFFF" points="441.5,142.9 441.4,97.5 437.5,97.5 437.6,135.1 437.5,135.1 415.7,97.5 410.3,97.5 410.3,142.9 
		414.2,142.9 414.2,103 414.3,103 437.6,142.9 	"/>
	<polygon fill="#FFFFFF" points="450,142.9 453.8,142.8 453.8,97.5 449.9,97.5 	"/>
	<polygon fill="#FFFFFF" points="467.6,142.8 471.5,142.8 471.4,101.7 480.4,101.7 480.4,97.5 458.6,97.5 458.6,101.7 467.6,101.7 	
		"/>
	<path fill="#FFFFFF" d="M494.3,97.5l-16.7,45.2h4l5.7-15.3h18.1l5.7,15.3h4.3l-16.9-45.2H494.3z M488.8,123.4l7.6-20.7l7.5,20.7
		H488.8z"/>
	<path fill="#FFFFFF" d="M529.7,139.4c-4.8,0-7.9-3.6-8.2-9.4h-3.8c0.2,10,7,13.5,12,13.5c6.9,0,11.7-6.3,11.7-13.3
		c0-1.3,0.1-10.1-9.5-13.1c-5.2-1.7-9.3-3-9.4-8.5c0-3.9,2.6-7.9,7.2-7.9c3.6,0,6.9,3.6,6.9,8.2h3.9c0-6.6-4.4-12.3-10.8-12.3
		c-6.2,0-11.1,5.2-11.1,12.2c0,9,6.7,10.6,10.2,11.8c2.7,1,8.7,2.7,8.7,9.7C537.5,135.8,533.8,139.4,529.7,139.4z"/>
	<polygon fill="#FFFFFF" points="254.2,36.6 250.3,36.6 250.3,81.8 254.2,81.8 	"/>
	<polygon fill="#FFFFFF" points="273.5,42 273.6,42 296.8,81.8 300.8,81.8 300.7,36.5 296.8,36.6 296.8,74.1 296.7,74.1 274.8,36.6 
		269.6,36.6 269.6,81.8 273.5,81.8 	"/>
	<path fill="#FFFFFF" d="M325.3,78.5c-4.8,0-7.9-3.7-8.1-9.4h-3.9c0.2,9.9,7,13.5,12,13.5c6.9,0,11.8-6.3,11.8-13.3
		c0-1.4,0-10.1-9.6-13.2c-5.1-1.7-9.3-3-9.3-8.5c0-3.9,2.6-7.8,7.1-7.8c3.6,0,6.9,3.6,6.9,8.2h3.9c0-6.7-4.4-12.3-10.8-12.3
		c-6.2,0-11,5.2-11,12.1c0,9.1,6.6,10.7,10.1,11.9c2.7,1,8.8,2.8,8.8,9.7C333.2,74.7,329.4,78.5,325.3,78.5z"/>
	<polygon fill="#FFFFFF" points="355.1,81.7 359,81.7 359,40.6 368,40.6 368,36.5 346.1,36.5 346.1,40.6 355.1,40.6 	"/>
	<polygon fill="#FFFFFF" points="383.6,81.7 383.5,36.5 379.6,36.5 379.7,81.7 	"/>
	<polygon fill="#FFFFFF" points="417.1,40.5 417.1,36.4 395.3,36.5 395.3,40.5 404.3,40.5 404.3,81.7 408.2,81.7 408.1,40.5 	"/>
	<path fill="#FFFFFF" d="M451.6,64.6c0,3.2-0.4,6.2-1.2,8.2c-2.4,5-6.2,5.5-8.1,5.5c-1.8,0-5.7-0.5-8.1-5.5
		c-0.9-1.9-1.3-4.9-1.3-8.2V36.4h-3.9v28.2c0,3.8,0.6,7.1,1.5,9.4c2.7,6.8,8.2,8.5,11.8,8.5s9.2-1.7,11.8-8.5c1-2.4,1.4-5.6,1.4-9.4
		V36.4h-3.9V64.6z"/>
	<polygon fill="#FFFFFF" points="476.3,81.6 480.1,81.6 480.1,40.5 489.1,40.5 489.1,36.4 467.2,36.4 467.2,40.5 476.2,40.5 	"/>
	<path fill="#FFFFFF" d="M519.8,82.4c10.9,0,20.7-10.1,20.7-23.4c0-13.4-9.8-23.5-20.8-23.5c-10.4,0-20.6,9.4-20.6,23.7
		C499.1,71.9,508.6,82.4,519.8,82.4z M519.7,39.6c9.3,0,16.9,8.8,16.9,19.4c0,10.8-7.8,19.3-16.8,19.3c-9.2,0-16.8-8.7-16.8-19.1
		C503,47.9,510.9,39.6,519.7,39.6z"/>
	<path fill="#FFFFFF" d="M15.5,89.8c9.5,10,14.2,19.8,14.1,29.1c-0.1,9.1-4.8,18.3-14,27.5l3.9,5.2c10.6-10.5,16-21.5,16.1-32.6
		c0.1-11.5-5.3-22.9-16.1-34.3L15.5,89.8z"/>
	<path fill="#FFFFFF" d="M76.1,49.8l-4,5.2c19.6,20.7,30.1,41.1,31,61.1H69.6c-0.8-16.2-9-32.6-24.5-48.9l-4,5.2
		c15.2,15.9,22.8,31.7,22.6,46.9c-0.1,14.7-7.8,29.7-22.5,44.3l3.9,5.2c14.9-14.8,23.1-30.3,24.4-45.8h33.7
		c-1.3,19.4-11.6,38.8-30.8,57.9l3.9,5.2c21.7-21.6,32.7-43.9,33-66.4C109.5,96.7,98.4,73.1,76.1,49.8z"/>
	<path fill="#FFFFFF" d="M9.1,72.1c-2.4,0-4.3,1.7-4.8,4c-0.1,0.3-0.1,0.7-0.1,1c0,2.4,1.6,4.4,3.9,4.9C8.4,82,8.8,82,9.1,82
		c0.3,0,0.7,0,1-0.1c2.2-0.5,3.9-2.4,3.9-4.9c0-0.3,0-0.7-0.1-1C13.5,73.7,11.5,72.1,9.1,72.1z"/>
	<path fill="#FFFFFF" d="M142.6,5.6c-1.2-1.2-3.1-1.1-4.3,0.3c-1,1.4-1,3.7,0.3,5c34.1,34.8,51,68.6,51.7,103.3
		c0.6,35.5-15.8,71.3-50.2,109.4c-13.2,14.8-28.6,10.8-34.9,3.2c-5.2-6.1-4.8-13.8,1.1-20.8c28-27.9,42.3-56.7,42.6-85.7
		c0.4-29.8-14.1-60.1-42.8-90.4c-1.2-1.2-3.1-1.1-4.3,0.3c-1.1,1.4-1,3.6,0.3,4.9c27.4,28.8,41.1,57.4,40.8,85.1
		c-0.3,27-14,54.1-40.7,80.6l-0.1,0.1c-8.4,9.6-8.9,21.8-1.2,30.8c4.7,5.4,11.6,8.8,19.3,8.8c8,0,16.6-3.6,24.1-11.9
		c35.7-39.6,52.7-77,52-114.5C195.6,77.2,178.1,41.8,142.6,5.6z"/>
</g>
</svg>
