<?xml version="1.0" encoding="utf-8"?>
<!-- Generator: Adobe Illustrator 18.1.1, SVG Export Plug-In . SVG Version: 6.00 Build 0)  -->
<svg version="1.1" id="Camada_1" xmlns="http://www.w3.org/2000/svg" xmlns:xlink="http://www.w3.org/1999/xlink" x="0px" y="0px"
	 viewBox="0 35.1 1038.1 228" enable-background="new 0 35.1 1038.1 228" xml:space="preserve">
<circle fill="#575756" cx="551.2" cy="155.6" r="1.4"/>
<circle fill="#575756" cx="551.2" cy="123.5" r="1.4"/>
<g>
	<path fill="#E66101" d="M250.9,207.6c0,3-0.4,5.8-1.2,7.5c-2.1,4.7-5.6,5.1-7.4,5.1c-1.7,0-5.2-0.5-7.4-5.1
		c-0.8-1.7-1.2-4.5-1.2-7.5v-25.9h-3.6v25.9c0,3.5,0.5,6.5,1.4,8.6c2.5,6.3,7.5,7.7,10.8,7.7c3.4,0,8.5-1.5,10.8-7.7
		c0.9-2.2,1.3-5.1,1.3-8.6v-25.9h-3.6V207.6z"/>
	<polygon fill="#E66101" points="294.9,216.2 294.9,216.2 274.8,181.7 269.9,181.7 269.9,223.2 273.5,223.2 273.5,186.7 
		273.6,186.7 294.9,223.1 298.5,223.1 298.5,181.6 294.9,181.6 	"/>
	<polygon fill="#E66101" points="314,223.1 317.5,223.1 317.5,181.6 313.9,181.6 	"/>
	<path fill="#E66101" d="M343.5,199.7c-4.8-1.6-8.5-2.8-8.5-7.7c-0.1-3.7,2.4-7.3,6.4-7.3c3.4,0,6.4,3.2,6.4,7.4h3.6
		c0-6.1-4.1-11.2-10-11.2c-5.6,0-10.1,4.7-10.1,11.1c0,8.4,6.2,9.9,9.4,10.9c2.5,0.9,8,2.5,8,8.8c0,4.9-3.4,8.3-7.2,8.3
		c-4.4,0.1-7.3-3.3-7.5-8.5h-3.5c0.2,9.1,6.3,12.4,11,12.4c6.3-0.1,10.8-5.8,10.8-12.3C352.2,210.5,352.3,202.5,343.5,199.7z"/>
	<rect x="365.3" y="181.6" fill="#E66101" width="3.6" height="41.5"/>
	<polygon fill="#E66101" points="409.2,216.1 409.1,216.1 389,181.6 384.2,181.6 384.2,223.1 387.8,223.1 387.7,186.7 387.9,186.7 
		409.2,223.1 412.8,223.1 412.8,181.5 409.2,181.6 	"/>
	<path fill="#E66101" d="M445.6,180.9c-9.6,0-18.9,8.6-18.9,21.8c0,11.7,8.7,21.2,18.9,21.2c10.1,0,19-9.3,19-21.5
		C464.6,190.1,455.6,180.9,445.6,180.9z M445.6,220c-8.4,0-15.3-8-15.3-17.5c0-10.4,7.3-18.1,15.3-18c8.5-0.1,15.4,8.1,15.4,17.8
		C461,212.2,453.9,220,445.6,220z"/>
	<path fill="#E66101" d="M488.9,199.6c-4.8-1.6-8.5-2.8-8.5-7.8c0-3.7,2.4-7.3,6.5-7.3c3.4,0,6.3,3.3,6.3,7.5h3.7
		c0-6.1-4.1-11.3-10-11.3c-5.7,0-10.1,4.8-10.1,11.2c0,8.3,6.1,9.8,9.3,10.8c2.5,0.9,8.1,2.6,8.1,8.9c0,4.9-3.5,8.3-7.3,8.3
		c-4.4,0-7.3-3.3-7.4-8.6h-3.6c0.2,9.2,6.4,12.4,11,12.4c6.4,0,10.8-5.8,10.8-12.2C497.7,210.4,497.7,202.3,488.9,199.6z"/>
	<polygon fill="#E66101" points="252.2,143.8 233.6,143.8 233.6,125.4 230.1,125.4 230.1,167.1 233.6,167.1 233.6,147.6 
		252.2,147.5 252.3,167.1 255.9,167.1 255.9,125.4 252.2,125.4 	"/>
	<path fill="#E66101" d="M286.7,159.9c0.9-2.1,1.4-5.1,1.4-8.6l-0.1-25.9h-3.5v25.9c0,3-0.4,5.7-1.2,7.5c-2.2,4.7-5.7,5.1-7.4,5.1
		c-1.7,0-5.1-0.5-7.4-5.1c-0.8-1.7-1.1-4.5-1.1-7.5l-0.1-25.9h-3.6v25.9c0,3.5,0.6,6.5,1.4,8.6c2.6,6.3,7.5,7.8,10.8,7.8
		S284.3,166.3,286.7,159.9z"/>
	<polygon fill="#E66101" points="333,125.4 327.6,125.4 314.4,160.8 301.4,125.4 295.9,125.4 295.9,167 299.4,167 299.4,130 
		299.5,130 312.9,167 315.9,167 329.4,130 329.5,167 333.1,167 	"/>
	<path fill="#E66101" d="M353.1,125.4l-15.3,41.5h3.8l5.2-14.1h16.6l5.2,14.1h3.9l-15.4-41.5L353.1,125.4z M348.1,149.2l7-19l6.9,19
		H348.1z"/>
	<polygon fill="#E66101" points="405.8,167 405.7,125.3 402.1,125.3 402.2,159.8 402.1,159.8 382.1,125.3 377.1,125.3 377.1,167 
		380.7,167 380.7,130.3 380.8,130.3 402.2,167 	"/>
	<polygon fill="#E66101" points="413.6,167 417.1,166.9 417.1,125.3 413.5,125.3 	"/>
	<polygon fill="#E66101" points="429.8,166.9 433.4,166.9 433.3,129.1 441.5,129.1 441.5,125.3 421.5,125.3 421.5,129.1 
		429.8,129.1 	"/>
	<path fill="#E66101" d="M454.3,125.3L439,166.8h3.7l5.2-14.1h16.6l5.2,14.1h4l-15.5-41.5H454.3z M449.3,149.1l7-19l6.9,19H449.3z"
		/>
	<path fill="#E66101" d="M486.9,163.8c-4.4,0-7.3-3.3-7.5-8.6h-3.5c0.2,9.2,6.4,12.4,11,12.4c6.3,0,10.8-5.8,10.8-12.2
		c0-1.2,0.1-9.3-8.7-12c-4.8-1.6-8.5-2.8-8.6-7.8c0-3.6,2.4-7.3,6.6-7.3c3.3,0,6.3,3.3,6.3,7.5h3.6c0-6.1-4-11.3-9.9-11.3
		c-5.7,0-10.2,4.8-10.2,11.2c0,8.3,6.2,9.7,9.4,10.8c2.5,0.9,8,2.5,8,8.9C494,160.5,490.6,163.8,486.9,163.8z"/>
	<polygon fill="#E66101" points="233.6,69.3 230.1,69.3 230.1,110.8 233.6,110.8 	"/>
	<polygon fill="#E66101" points="251.4,74.3 251.5,74.3 272.8,110.8 276.5,110.8 276.4,69.2 272.8,69.3 272.8,103.8 272.7,103.8 
		252.6,69.3 247.8,69.3 247.8,110.8 251.4,110.8 	"/>
	<path fill="#E66101" d="M299,107.8c-4.4,0-7.3-3.4-7.4-8.6H288c0.2,9.1,6.4,12.4,11,12.4c6.3,0,10.8-5.8,10.8-12.2
		c0-1.3,0-9.3-8.8-12.1c-4.7-1.6-8.5-2.8-8.5-7.8c0-3.6,2.4-7.2,6.5-7.2c3.3,0,6.3,3.3,6.3,7.5h3.6c0-6.2-4-11.3-9.9-11.3
		c-5.7,0-10.1,4.8-10.1,11.1c0,8.4,6.1,9.8,9.3,10.9c2.5,0.9,8.1,2.6,8.1,8.9C306.3,104.3,302.8,107.8,299,107.8z"/>
	<polygon fill="#E66101" points="326.4,110.7 330,110.7 330,73 338.2,73 338.2,69.2 318.1,69.2 318.1,73 326.4,73 	"/>
	<polygon fill="#E66101" points="352.6,110.7 352.5,69.2 348.9,69.2 349,110.7 	"/>
	<polygon fill="#E66101" points="383.4,72.9 383.4,69.1 363.3,69.2 363.3,72.9 371.6,72.9 371.6,110.7 375.2,110.7 375.1,72.9 	"/>
	<path fill="#E66101" d="M415.1,95c0,2.9-0.4,5.7-1.1,7.5c-2.2,4.6-5.7,5.1-7.4,5.1c-1.7,0-5.2-0.5-7.4-5.1
		c-0.8-1.7-1.2-4.5-1.2-7.5V69.1h-3.6V95c0,3.5,0.6,6.5,1.4,8.6c2.5,6.3,7.5,7.8,10.8,7.8c3.3,0,8.5-1.6,10.8-7.8
		c0.9-2.2,1.3-5.1,1.3-8.6V69.1h-3.6L415.1,95L415.1,95z"/>
	<polygon fill="#E66101" points="437.8,110.6 441.3,110.6 441.3,72.9 449.5,72.9 449.5,69.1 429.4,69.1 429.4,72.9 437.7,72.9 	"/>
	<path fill="#E66101" d="M477.8,111.4c10,0,19-9.3,19-21.5c0-12.3-9-21.6-19.1-21.6c-9.6,0-18.9,8.6-18.9,21.8
		C458.7,101.7,467.5,111.4,477.8,111.4z M477.7,72c8.5,0,15.5,8.1,15.5,17.8c0,9.9-7.2,17.7-15.4,17.7c-8.5,0-15.4-8-15.4-17.6
		C462.3,79.7,469.6,72,477.7,72z"/>
	<path fill="#E66101" d="M14.2,118.2c8.7,9.2,13.1,18.2,13,26.7c-0.1,8.4-4.4,16.8-12.9,25.3l3.6,4.8c9.7-9.7,14.7-19.8,14.8-30
		c0.1-10.6-4.9-21-14.8-31.5L14.2,118.2z"/>
	<path fill="#E66101" d="M69.9,81.4l-3.7,4.8c18,19,27.7,37.8,28.5,56.2H64c-0.7-14.9-8.3-30-22.5-44.9l-3.7,4.8
		c14,14.6,21,29.1,20.8,43.1c-0.1,13.5-7.2,27.3-20.7,40.7l3.6,4.8c13.7-13.6,21.2-27.8,22.4-42.1h31c-1.2,17.8-10.7,35.7-28.3,53.2
		l3.6,4.8c19.9-19.9,30.1-40.3,30.3-61C100.6,124.5,90.4,102.8,69.9,81.4z"/>
	<path fill="#E66101" d="M8.4,101.9c-2.2,0-4,1.6-4.4,3.7c-0.1,0.3-0.1,0.6-0.1,0.9c0,2.2,1.5,4,3.6,4.5c0.3,0,0.6,0,0.9,0
		s0.6,0,0.9-0.1c2-0.5,3.6-2.2,3.6-4.5c0-0.3,0-0.6-0.1-0.9C12.4,103.4,10.6,101.9,8.4,101.9z"/>
	<path fill="#E66101" d="M131.1,40.8c-1.1-1.1-2.8-1-4,0.3c-0.9,1.3-0.9,3.4,0.3,4.6c31.3,32,46.9,63.1,47.5,94.9
		c0.6,32.6-14.5,65.5-46.1,100.6c-12.1,13.6-26.3,9.9-32.1,2.9c-4.8-5.6-4.4-12.7,1-19.1c25.7-25.6,38.9-52.1,39.2-78.8
		c0.4-27.4-13-55.2-39.3-83.1c-1.1-1.1-2.8-1-4,0.3c-1,1.3-0.9,3.3,0.3,4.5c25.2,26.5,37.8,52.8,37.5,78.2
		c-0.3,24.8-12.9,49.7-37.4,74.1l-0.1,0.1c-7.7,8.8-8.2,20-1.1,28.3c4.3,5,10.7,8.1,17.7,8.1c7.4,0,15.3-3.3,22.2-10.9
		c32.8-36.4,48.4-70.8,47.8-105.2C179.8,106.6,163.7,74.1,131.1,40.8z"/>
</g>
<g>
	<g>
		<path fill="#999999" d="M753.4,112.3c-7.2,11.4-27.9,46.4-30.1,50.2l14.2,7.9c1.6-3.5,4.3-9.3,4.9-10.4l22.5-1.3l6.7,11.6
			l14.8-8.7c-3.1-4.3-23.2-35.8-32.2-49.3H753.4z M747.2,149c1.9-4.2,4.6-9.7,6.3-13.3c1.3,3.1,4.2,8.4,6.3,12.6L747.2,149z"/>
		<path fill="#999999" d="M822.7,116.4c-6.9-1-14.9-1.3-28.7-1.3c0.3,2.1,0.4,18.6,0.4,20.1v9.3c0,2-0.1,20.5-0.4,24
			c24.1,0,52-9.6,52-33.1C846,129.2,842.2,119.1,822.7,116.4z M810.8,154.8V127c8.4,0,17.4,2.1,17.4,10.9
			C828.2,148.3,818.1,153.6,810.8,154.8z"/>
		<path fill="#999999" d="M873.8,115h-17.3c0,1.8,0.2,21,0.2,22.2v8.1c0,1.9-0.1,19.4-0.2,22.7h17.3c-0.1-1.7-0.3-15.1-0.3-22.5
			v-8.1C873.5,128.5,873.7,116.4,873.8,115z"/>
		<path fill="#999999" d="M914.6,127.8c1.2,0,15,0.4,16.4,0.4v-13.1c-3.7,0.3-19.9,0.6-21.3,0.6h-6.5c-0.8,0-18.5-0.3-21.9-0.6v13.1
			c2.3-0.1,12.9-0.4,16.5-0.4v19.5c0,8.1-0.1,18.7-0.2,20.7h17.2c-0.1-1.5-0.2-11.8-0.2-19.5V127.8z"/>
		<path fill="#999999" d="M957.4,112.3c-7.2,11.4-27.9,46.4-30.1,50.2l14.2,7.9c1.6-3.5,4.3-9.3,4.9-10.4l22.5-1.3l6.7,11.6
			l14.8-8.7c-3.1-4.3-23.2-35.8-32.2-49.3H957.4z M951.1,149c1.9-4.2,4.6-9.7,6.3-13.3c1.3,3.1,4.2,8.4,6.3,12.6L951.1,149z"/>
		<path fill="#999999" d="M998.1,168c6,0,31.9,0.7,33.7,0.7l-0.1-13.9c-6,0.3-14.8,0.3-16.6,0.3v-13.7c0-9.4,0.3-24.8,0.4-26.5H998
			c0.1,1.4,0.3,20.1,0.3,21.3v9.9C998.3,148.1,998.3,164.1,998.1,168z"/>
		<polygon fill="#999999" points="634.5,154.2 634.5,177.7 653.4,151.7 		"/>
		<polygon fill="#999999" points="586.3,182.5 618.9,182.5 600.5,172.4 		"/>
		<polygon fill="#999999" points="642.1,92.4 614.5,85.1 623.4,99.7 		"/>
		<polygon fill="#999999" points="593.1,87.6 568.4,99.7 588.3,103.8 		"/>
		<polygon fill="#999999" points="568.4,126.2 561.2,111.9 554,137.3 		"/>
		<polygon fill="#999999" points="555,152.7 572.2,179.2 570.9,159.9 		"/>
		<circle fill="#999999" cx="654.8" cy="156.5" r="1.4"/>
		<circle fill="#999999" cx="651" cy="163.2" r="1.4"/>
		<circle fill="#999999" cx="646.6" cy="169.5" r="1.4"/>
		<circle fill="#999999" cx="613.3" cy="189.1" r="1.4"/>
		<circle fill="#999999" cx="605.7" cy="189.1" r="1.4"/>
		<circle fill="#999999" cx="597.9" cy="189.1" r="1.4"/>
		<circle fill="#999999" cx="556.6" cy="170.1" r="1.4"/>
		<circle fill="#999999" cx="553.2" cy="162.9" r="1.4"/>
		<circle fill="#999999" cx="552.6" cy="116.6" r="1.4"/>
		<circle fill="#999999" cx="555.6" cy="109.4" r="1.4"/>
		<circle fill="#999999" cx="572.9" cy="89.7" r="1.4"/>
		<circle fill="#999999" cx="580" cy="86.7" r="1.4"/>
		<circle fill="#999999" cx="587" cy="83.5" r="1.4"/>
		<circle fill="#999999" cx="624.8" cy="83.6" r="1.4"/>
		<circle fill="#999999" cx="632.3" cy="85.7" r="1.4"/>
		<circle fill="#999999" cx="639.6" cy="88.3" r="1.4"/>
		<circle fill="#999999" cx="659.6" cy="108.7" r="1.4"/>
		<circle fill="#999999" cx="661.4" cy="124.6" r="1.4"/>
		<path fill="#999999" d="M665.4,174.2c0.7-11.4,5-25.5,5.1-25.7l-1.2-0.4c-0.2,0.8-4.4,14.4-5.2,25.8c-14.9-1.9-25.9,0.8-32.7,8
			c-10.3,10.8-7.4,27.8-7.2,28.5l1.8-0.3c0-0.2-2.9-16.7,6.8-26.9c6.4-6.8,17-9.2,31.3-7.4c-0.1,3.1,0.1,5.9,0.7,8.2l1.2-0.4
			c-0.6-2.1-0.8-4.6-0.7-7.5c5.2,1.8,30.9,11.9,30,38.5l1.8,0.1C698.1,186,669.5,175.6,665.4,174.2z"/>
		<path fill="#999999" d="M710.6,94.2l-54,22.5l-1.5-10.9l-10.1,14.9l0.6,0.6l-3.8,1.6c-0.7-1.4-1.2-2.5-1.6-3.3l8.8-21.3l-25.9,5.9
			l-19.7-18.4L591,109h-23.1l5.9,17.7l-17.8,16l21.6,17.9l1.9,21.3l19.6-12l25.7,9.5l7.8-27.1l22.7-11.9
			c8.2,5.8,20.9,11.2,39.6,11.2c4.9,0,10.3-0.4,16.1-1.2l-0.3-1.8c-26.6,3.8-43.5-2.2-53.6-9.1l1.1-0.6l-9.9-7.1
			c-2.5-2.8-4.4-5.6-5.7-7.8l4.1-1.7l12.3,11.6l-2.1-15.8l54.3-22.6L710.6,94.2z M605,166.6c-17.8,0-32.3-13.4-32.3-29.9
			c0-16.5,14.4-29.9,32.3-29.9c13.6,0,25.3,7.8,30,18.9l-7.1,2.9c-3.6-7.6-12-12.9-21.9-12.9c-13.1,0-23.7,9.4-23.7,21
			c0,11.6,10.6,21,23.7,21c13.1,0,23.7-9.4,23.7-21c0-2.4-0.5-4.7-1.3-6.9l7-2.9c1.2,3.1,1.8,6.4,1.8,9.8
			C637.3,153.2,622.9,166.6,605,166.6z M639.4,121.9c0.2,0.5,0.5,1.1,0.8,1.7l-1.8,0.8L639.4,121.9z M642.9,127.9l-3.6-2.6l1.6-0.7
			C641.4,125.7,642.1,126.8,642.9,127.9z"/>
		<ellipse fill="#999999" cx="674.8" cy="134.1" rx="6.1" ry="7.6"/>
	</g>
</g>
</svg>
